# xmcd
#
# Track frame offsets:
#	150
#	20556
#	44191
#	70170
#	85080
#	100547
#	120194
#	150311
#	166388
#	189309
#	208531
#	226757
#
# Disc length: 3288 seconds
#
# Revision: 1
# Processed by: cddbd v1.5.2PL0 Copyright (c) Steve Scherf et al.
# Submitted via: audiograbber 1.81.03
#
DISCID=890cd60c
DTITLE=Mississippi Heat - Glad You're Mine
DYEAR=2006
DGENRE=Country
TTITLE0=Dirty Deal
TTITLE1=Heartless Fool
TTITLE2=She Ain't Your Toy
TTITLE3=Glad You're Mine
TTITLE4=Give Me Your Strongest Whiskey
TTITLE5=Cool Twist
TTITLE6=I'm A Woman
TTITLE7=Take My Hand
TTITLE8=Love Will Play Tricks
TTITLE9=Where Were You
TTITLE10=Jamaican Night
TTITLE11=Real Sad Story
EXTD=
EXTT0=
EXTT1=
EXTT2=
EXTT3=
EXTT4=
EXTT5=
EXTT6=
EXTT7=
EXTT8=
EXTT9=
EXTT10=
EXTT11=
PLAYORDER=
